<svg width="1200" height="630" viewBox="0 0 1200 630" fill="none" xmlns="http://www.w3.org/2000/svg">
  <!-- Background matching navbar (slate-800) -->
  <rect width="1200" height="630" fill="#1e293b"/>
  
  <!-- Main content area -->
  <rect x="60" y="140" width="1080" height="350" rx="20" fill="#334155" stroke="#84cc16" stroke-width="2" opacity="0.9"/>
  
  <!-- Exact ChefHat icon from lucide-react -->
  <g transform="translate(600, 200) scale(3)">
    <!-- This is the exact SVG path from lucide-react ChefHat icon -->
    <path d="M6 13.87A4 4 0 0 1 7.41 6a5.11 5.11 0 0 1 1.05-1.54 5 5 0 0 1 7.08 0A5.11 5.11 0 0 1 16.59 6 4 4 0 0 1 18 13.87V21H6Z" 
          fill="#84cc16" stroke="none"/>
    <line x1="6" y1="17" x2="18" y2="17" stroke="#1e293b" stroke-width="2"/>
  </g>
  
  <!-- Culinova title (matching navbar text) -->
  <text x="600" y="320" font-family="Arial, sans-serif" font-size="72" font-weight="bold" text-anchor="middle" fill="white">
    Culinova
  </text>
  
  <!-- Tagline -->
  <text x="600" y="370" font-family="Arial, sans-serif" font-size="28" text-anchor="middle" fill="#84cc16">
    Recipe Management Made Simple
  </text>
  
  <!-- URL -->
  <text x="600" y="450" font-family="Arial, sans-serif" font-size="20" text-anchor="middle" fill="#94a3b8">
    culinova-six.vercel.app
  </text>
</svg>
